<?xml version="1.0" encoding="iso-8859-1"?>
<!-- Generator: Adobe Illustrator 19.0.0, SVG Export Plug-In . SVG Version: 6.00 Build 0)  -->
<svg version="1.1" id="Layer_1" xmlns="http://www.w3.org/2000/svg" xmlns:xlink="http://www.w3.org/1999/xlink" x="0px" y="0px"
	 viewBox="0 0 512 512" style="enable-background:new 0 0 512 512;" xml:space="preserve">
<g>
	<g>
		<rect x="143.901" y="64" style="fill:#868491;" width="232" height="32"/>
	</g>
	<g>
		<rect x="127.901" y="128" style="fill:#868491;" width="256" height="272"/>
	</g>
	<g>
		<path style="fill:#5C546A;" d="M135.901,152c-2.929,0-5.639,0.845-8,2.219V365.78c2.361,1.375,5.071,2.219,8,2.219
			c8.836,0,16-7.164,16-16V168C151.901,159.163,144.737,152,135.901,152z"/>
	</g>
	<g>
		<rect x="255.901" y="128" style="fill:#B4B6BC;" width="128" height="272"/>
	</g>
	<g>
		<path style="fill:#868491;" d="M383.9,154.219c-2.361-1.375-5.071-2.219-8-2.219c-8.836,0-16,7.163-16,16v184
			c0,8.836,7.164,16,16,16c2.929,0,5.639-0.845,8-2.219V154.219z"/>
	</g>
	<g>
		<path style="fill:#868491;" d="M327.901,368L327.901,368c-8.837,0-16-7.163-16-16V168c0-8.837,7.163-16,16-16l0,0
			c8.837,0,16,7.163,16,16v184C343.9,360.836,336.737,368,327.901,368z"/>
	</g>
	<g>
		<path style="fill:#868491;" d="M279.901,368L279.901,368c-8.837,0-16-7.163-16-16V168c0-8.837,7.163-16,16-16l0,0
			c8.837,0,16,7.163,16,16v184C295.901,360.836,288.737,368,279.901,368z"/>
	</g>
	<g>
		<path style="fill:#5C546A;" d="M183.901,368L183.901,368c-8.837,0-16-7.163-16-16V168c0-8.837,7.163-16,16-16l0,0
			c8.837,0,16,7.163,16,16v184C199.901,360.836,192.737,368,183.901,368z"/>
	</g>
	<g>
		<path style="fill:#5C546A;" d="M231.901,368L231.901,368c-8.837,0-16-7.163-16-16V168c0-8.837,7.163-16,16-16l0,0
			c8.837,0,16,7.163,16,16v184C247.901,360.836,240.737,368,231.901,368z"/>
	</g>
	<g>
		<rect x="143.901" y="96" style="fill:#B4B6BC;" width="232" height="32"/>
	</g>
	<g>
		<circle style="fill:#5C546A;" cx="183.901" cy="112" r="8"/>
	</g>
	<g>
		<circle style="fill:#868491;" cx="327.901" cy="112" r="8"/>
	</g>
	<g>
		<path style="fill:#B4B6BC;" d="M454.236,30.398C437.932,11.078,412.377,0,384.119,0h-256C99.862,0,74.307,11.078,58.002,30.398
			C43.166,47.984,37.283,71.078,41.44,95.43c6.508,38.156,40.086,65.164,78.797,65.164c3.453,0,6.953-0.211,10.469-0.656
			c17.531-2.195,34.008-11.82,44.078-25.727c8.609-11.891,11.867-26,9.187-39.727c-1.725-8.842-5.352-16.394-10.345-22.484h164.986
			c-4.993,6.091-8.62,13.642-10.345,22.484c-2.68,13.727,0.578,27.836,9.187,39.727c10.07,13.906,26.547,23.531,44.078,25.727
			c42.859,5.445,82.18-22.937,89.266-64.508C474.955,71.078,469.072,47.984,454.236,30.398z"/>
	</g>
	<g>
		<path style="fill:#868491;" d="M408.119,464c-15.827,0-28.123-15.397-22.698-32H126.817c5.425,16.603-6.871,32-22.698,32
			c-4.422,0-8,3.578-8,8s3.578,8,8,8h304c4.422,0,8-3.578,8-8S412.541,464,408.119,464z"/>
	</g>
	<g>
		<path style="fill:#D3D7DC;" d="M384.119,384h-256c-13.234,0-24,10.766-24,24s10.766,24,24,24h256c13.234,0,24-10.766,24-24
			S397.354,384,384.119,384z"/>
	</g>
	<g>
		<path style="fill:#B4B6BC;" d="M255.901,384H128.119c-13.234,0-24,10.766-24,24s10.766,24,24,24H255.9v-48H255.901z"/>
	</g>
	<g>
		<path style="fill:#B4B6BC;" d="M408.119,464c-15.827,0-28.124-15.397-22.698-32h-129.52v48H408.12c4.422,0,8-3.578,8-8
			S412.541,464,408.119,464z"/>
	</g>
	<g>
		<path style="fill:#D3D7DC;" d="M416.119,464h-320c-13.234,0-24,10.766-24,24s10.766,24,24,24h320c13.234,0,24-10.766,24-24
			C440.119,474.765,429.354,464,416.119,464z"/>
	</g>
	<g>
		<path style="fill:#B4B6BC;" d="M255.901,464H96.119c-13.234,0-24,10.766-24,24s10.766,24,24,24H255.9L255.901,464L255.901,464z"/>
	</g>
	<g>
		<g>
			<path style="fill:#D3D7DC;" d="M119.998,160.594c-38.711,0-72.289-27.008-78.797-65.164
				c-4.156-24.352,1.727-47.445,16.562-65.031C74.068,11.078,99.623,0,127.881,0h256c28.258,0,53.813,11.078,70.117,30.398
				c14.836,17.586,20.719,40.68,16.562,65.031c-7.086,41.57-46.422,69.953-89.266,64.508c-17.531-2.195-34.008-11.82-44.078-25.727
				c-8.609-11.891-11.867-26-9.188-39.727c4.016-20.586,17.852-34.703,37.016-37.75c19.023-3.031,38.156,5.391,46.555,20.461
				c2.156,3.859,0.773,8.734-3.086,10.883s-8.734,0.773-10.883-3.086c-5.031-9.031-17.953-14.352-30.07-12.461
				c-7.305,1.164-20.109,5.961-23.828,25.016c-2.336,11.961,2.219,21.437,6.445,27.281c7.516,10.383,19.898,17.578,33.102,19.234
				c34.508,4.375,65.859-18.219,71.516-51.32c3.391-19.914-1.109-37.906-13.023-52.023C428.513,25.008,407.412,16,383.88,16h-256
				c-23.531,0-44.633,9.008-57.891,24.719C58.076,54.836,53.576,72.828,56.967,92.742c5.656,33.102,37.094,55.687,71.516,51.32
				c13.203-1.656,25.586-8.852,33.102-19.234c4.227-5.844,8.781-15.32,6.445-27.281c-3.719-19.055-16.523-23.852-23.828-25.016
				c-12.117-1.875-25.039,3.43-30.07,12.461c-2.148,3.859-7.031,5.227-10.883,3.086c-3.859-2.148-5.242-7.023-3.086-10.883
				c8.398-15.07,27.555-23.5,46.555-20.461c19.164,3.047,33,17.164,37.016,37.75c2.68,13.727-0.578,27.836-9.187,39.727
				c-10.07,13.906-26.547,23.531-44.078,25.727C126.951,160.383,123.451,160.594,119.998,160.594z"/>
		</g>
	</g>
	<g>
		<circle style="fill:#D3D7DC;" cx="124.12" cy="92.016" r="28"/>
	</g>
	<g>
		<circle style="fill:#D3D7DC;" cx="387.9" cy="92.016" r="28"/>
	</g>
	<g>
		<circle style="fill:#5C546A;" cx="255.901" cy="112" r="8"/>
	</g>
	<g>
		<circle style="fill:#868491;" cx="279.901" cy="112" r="8"/>
	</g>
	<g>
		<circle style="fill:#5C546A;" cx="231.901" cy="112" r="8"/>
	</g>
	<g>
		<circle style="fill:#5C546A;" cx="207.901" cy="112" r="8"/>
	</g>
	<g>
		<circle style="fill:#868491;" cx="303.901" cy="112" r="8"/>
	</g>
	<g>
		<path style="fill:#868491;" d="M263.901,112c0-4.418-3.582-8-8-8v16C260.319,120,263.901,116.418,263.901,112z"/>
	</g>
</g>
<g>
</g>
<g>
</g>
<g>
</g>
<g>
</g>
<g>
</g>
<g>
</g>
<g>
</g>
<g>
</g>
<g>
</g>
<g>
</g>
<g>
</g>
<g>
</g>
<g>
</g>
<g>
</g>
<g>
</g>
</svg>
