<?xml version="1.0" encoding="iso-8859-1"?>
<!-- Generator: Adobe Illustrator 19.0.0, SVG Export Plug-In . SVG Version: 6.00 Build 0)  -->
<svg version="1.1" id="Layer_1" xmlns="http://www.w3.org/2000/svg" xmlns:xlink="http://www.w3.org/1999/xlink" x="0px" y="0px"
	 viewBox="0 0 512 512" style="enable-background:new 0 0 512 512;" xml:space="preserve">
<g>
	<g>
		<rect x="255.891" y="392" style="fill:#868491;" width="32" height="48"/>
	</g>
	<g>
		<rect x="255.891" y="392" style="fill:#5C546A;" width="16" height="48"/>
	</g>
	<g>
		<path style="fill:#BA7958;" d="M224.11,472v-16c0-8.837,7.163-16,16-16h64c8.837,0,16,7.163,16,16v16"/>
	</g>
	<g>
		<path style="fill:#996459;" d="M271.891,440H240.11c-8.836,0-16,7.163-16,16v16h47.781V440z"/>
	</g>
	<g>
		<g>
			<path style="fill:#5C546A;" d="M272.109,48c-4.422,0-8-3.582-8-8V8c0-4.418,3.578-8,8-8s8,3.582,8,8v32
				C280.109,44.418,276.531,48,272.109,48z"/>
		</g>
	</g>
	<g>
		<g>
			<path style="fill:#5C546A;" d="M272.109,400c-4.422,0-8-3.582-8-8v-32c0-4.418,3.578-8,8-8s8,3.582,8,8v32
				C280.109,396.418,276.531,400,272.109,400z"/>
		</g>
	</g>
	<g>
		<path style="fill:#996459;" d="M328.109,464h-112c-22.055,0-40,17.945-40,40c0,4.418,3.578,8,8,8h176c4.422,0,8-3.582,8-8
			C368.109,481.945,350.164,464,328.109,464z"/>
	</g>
	<g>
		<circle style="fill:#FFD788;" cx="271.891" cy="200" r="168"/>
	</g>
	<g>
		<path style="fill:#E6BE8A;" d="M271.891,368c46.392,0,88.392-18.804,118.794-49.206L153.097,81.206
			c-30.402,30.402-49.206,72.402-49.206,118.794C103.891,292.784,179.107,368,271.891,368z"/>
	</g>
	<g>
		<g>
			<path style="fill:#E6BE8A;" d="M438.642,179.823c-9.04-75.474-68.083-135.546-143.073-146.13l-9.383,15.284
				c-0.361,0.664-0.968,1.143-1.695,1.348c-0.738,0.197-1.498,0.107-2.155-0.271l-24.549-14.139
				c-1.006-0.577-2.259-0.479-3.155,0.246l-35.066,28.282c-5.966,4.81-9.384,11.957-9.384,19.614v7.675
				c0,0.837,0.372,1.63,1.023,2.163c0.645,0.53,1.498,0.741,2.319,0.585l24.888-4.884l-3.834,6.686
				c-0.941,1.652-2.188,3.068-3.708,4.214l-22.263,16.803c-0.705,0.528-1.116,1.356-1.116,2.234v13.234l-7.459,0.793
				c-7.41,0.785-12.901,7.23-12.502,14.67l0.405,7.484c0.323,6.007,4.43,11.126,10.227,12.739l7.607,2.116
				c-8.329,2.535-14.016,10.248-13.82,19.171l0.126,5.772l-8.57,16.529c-7.071,13.628-6.152,30.01,2.406,42.752l4.074,6.068
				c5.573,8.296,15.559,12.532,25.348,10.762l37.22-6.645l8.663,10.73c5.868,7.262,13.573,12.873,22.291,16.226l3.784,1.455v23.373
				c0,2.543,0.919,7.112,2.811,13.97c2.39,8.657,8.034,15.848,15.892,20.254c5.108,2.866,10.741,4.323,16.434,4.323
				c3.123,0,6.267-0.438,9.357-1.326c0.837-0.238,1.515-0.853,1.832-1.66l24.516-61.972l32.813-30.915
				c0.438-0.41,0.727-0.949,0.837-1.537l3.27-18.025c0.153-0.85-0.093-1.723-0.667-2.368c-0.58-0.645-1.422-0.965-2.28-0.927
				l-7.952,0.544c-5.173,0.358-10.079-1.321-13.885-4.49L322.291,172l53.6,52l22.935-12.513c4.966-3.68,7.93-9.568,7.93-15.75
				v-15.214c0-0.9-0.432-1.745-1.159-2.27c-0.733-0.533-1.663-0.675-2.521-0.388l-6.229,2.062c-2.275,0.752-4.681,0.52-6.77-0.662
				c-2.089-1.184-3.533-3.123-4.063-5.466l-2.516-11.184l53.949,17.145C437.84,179.88,438.246,179.872,438.642,179.823z
				 M319.573,166.758l-4.326,3.907l-25.866,8.648c-3.269,1.093-6.86,0.62-9.734-1.283l-14.379-9.519
				c-5.091-3.369-10.965-5.121-16.964-5.121c-1.794,0-3.598,0.159-5.392,0.476l-26.091,4.605l7.736-5.777
				c1.657-1.237,2.939-2.91,3.704-4.831l4.873-12.24c4.391-4.066,10.817-4.892,16.056-2.125l15.241,13.513
				c0.87,0.774,2.133,0.924,3.161,0.383c1.034-0.541,1.619-1.665,1.477-2.819l-1.58-12.466c0.077-1.646,1.345-2.294,1.728-2.453
				c0.383-0.161,1.739-0.596,2.959,0.522l18.359,16.803c0.726,0.665,1.748,0.9,2.693,0.62l27.331-8.11
				c1.952,2.22,3.057,5.094,3.073,8.086C323.641,161.071,322.165,164.418,319.573,166.758z M330.756,130.645l-8.717,6.445
				c-0.962,0.711-2.133,1.096-3.33,1.096h-15.553c-3.095,0-5.6-2.507-5.6-5.6s2.505-5.6,5.6-5.6h13.71l7.23-5.348
				c2.488-1.84,6.005-1.31,7.831,1.173C333.769,125.3,333.244,128.805,330.756,130.645z M355.808,130.667
				c-0.995,0.725-2.149,1.075-3.292,1.075c-1.728,0-3.434-0.798-4.528-2.3l-14.334-19.66c-1.827-2.499-1.274-6.005,1.225-7.826
				c2.499-1.824,5.999-1.269,7.82,1.225l14.334,19.66C358.86,125.341,358.308,128.846,355.808,130.667z"/>
		</g>
	</g>
	<g>
		<g>
			<g>
				<path style="fill:#E6BE8A;" d="M194.492,120c-0.405,0-0.809-0.041-1.22-0.134c-3.019-0.67-4.922-3.661-4.255-6.68l3.095-13.929
					l-5.551-3.407c-2.636-1.616-3.462-5.067-1.843-7.703c1.624-2.639,5.07-3.467,7.705-1.84l8.952,5.496
					c2.034,1.25,3.052,3.653,2.537,5.986l-3.959,17.825C199.375,118.225,197.057,120,194.492,120z"/>
			</g>
		</g>
	</g>
	<g>
		<path style="fill:#C9A07C;" d="M236.829,164.938l-20.009,3.531l7.736-5.777c1.657-1.237,2.939-2.91,3.704-4.831l0.425-1.066
			L204.93,133.04l-4.899,0.521c-7.41,0.785-12.901,7.229-12.501,14.67l0.405,7.484c0.322,6.007,4.43,11.126,10.227,12.74
			l7.607,2.116c-8.329,2.535-14.017,10.249-13.82,19.171l0.126,5.772l-8.569,16.529c-7.071,13.628-6.152,30.01,2.406,42.752
			l4.074,6.068c5.572,8.296,15.559,12.531,25.348,10.762l37.22-6.645l8.663,10.73c5.868,7.262,13.573,12.873,22.291,16.226
			l3.784,1.455v23.374c0,2.543,0.919,7.112,2.811,13.97c2.39,8.657,8.034,15.849,15.892,20.254
			c5.108,2.865,10.741,4.323,16.434,4.323c3.123,0,6.267-0.438,9.357-1.326c0.837-0.238,1.515-0.853,1.832-1.66l24.517-61.972
			l2.116-1.994L236.829,164.938z"/>
	</g>
	<g>
		<g>
			<path style="fill:#996459;" d="M304.109,400h-32c-110.281,0-200-89.719-200-200s89.719-200,200-200h32c4.422,0,8,3.582,8,8
				s-3.578,8-8,8h-32c-101.461,0-184,82.543-184,184s82.539,184,184,184h32c4.422,0,8,3.582,8,8S308.531,400,304.109,400z"/>
		</g>
	</g>
	<g>
		<path style="fill:#7E5C62;" d="M271.891,464H216.11c-22.055,0-40,17.945-40,40c0,4.418,3.578,8,8,8h87.781V464z"/>
	</g>
</g>
<g>
</g>
<g>
</g>
<g>
</g>
<g>
</g>
<g>
</g>
<g>
</g>
<g>
</g>
<g>
</g>
<g>
</g>
<g>
</g>
<g>
</g>
<g>
</g>
<g>
</g>
<g>
</g>
<g>
</g>
</svg>
